<mxfile host="Electron" modified="2023-09-14T13:25:07.393Z" agent="Mozilla/5.0 (Windows NT 10.0; Win64; x64) AppleWebKit/537.36 (KHTML, like Gecko) draw.io/21.6.8 Chrome/114.0.5735.289 Electron/25.5.0 Safari/537.36" etag="voTVVVYepkbwRlP9S2wV" version="21.6.8" type="device">
  <diagram name="Page-1" id="RBe4kKmWxrb9Rina0VuJ">
    <mxGraphModel dx="2245" dy="1989" grid="1" gridSize="10" guides="1" tooltips="1" connect="1" arrows="1" fold="1" page="1" pageScale="1" pageWidth="827" pageHeight="1169" background="none" math="0" shadow="1">
      <root>
        <mxCell id="0" />
        <mxCell id="1" parent="0" />
        <mxCell id="Mw_88Z8rka56BvABdyxa-1" value="" style="endArrow=none;html=1;rounded=0;strokeWidth=2;shadow=0;shape=link;" parent="1" edge="1">
          <mxGeometry width="50" height="50" relative="1" as="geometry">
            <mxPoint y="-1120" as="sourcePoint" />
            <mxPoint x="827" y="-1120" as="targetPoint" />
          </mxGeometry>
        </mxCell>
        <mxCell id="Mw_88Z8rka56BvABdyxa-2" value="&lt;span&gt;&lt;font style=&quot;font-size: 20px;&quot;&gt;Charger Dimensions&lt;/font&gt;&lt;/span&gt;" style="text;align=left;html=1;verticalAlign=middle;rounded=0;shadow=0;glass=0;labelBorderColor=none;labelBackgroundColor=none;whiteSpace=wrap;fontStyle=1" parent="1" vertex="1">
          <mxGeometry x="6" y="-1155" width="328" height="30" as="geometry" />
        </mxCell>
        <mxCell id="Mw_88Z8rka56BvABdyxa-4" value="&lt;span&gt;&lt;font style=&quot;font-size: 20px;&quot;&gt;8.4V Charger&lt;/font&gt;&lt;/span&gt;" style="text;align=center;html=1;verticalAlign=middle;rounded=0;shadow=0;glass=0;labelBorderColor=none;labelBackgroundColor=none;whiteSpace=wrap;fontStyle=1" parent="1" vertex="1">
          <mxGeometry x="690" y="-1155" width="131.81" height="30" as="geometry" />
        </mxCell>
        <mxCell id="Mw_88Z8rka56BvABdyxa-8" value="" style="endArrow=none;html=1;rounded=0;strokeWidth=2;shadow=0;shape=link;endSize=6;startSize=6;" parent="1" edge="1">
          <mxGeometry width="50" height="50" relative="1" as="geometry">
            <mxPoint y="-50" as="sourcePoint" />
            <mxPoint x="827" y="-50" as="targetPoint" />
          </mxGeometry>
        </mxCell>
        <mxCell id="Mw_88Z8rka56BvABdyxa-9" value="&lt;div style=&quot;&quot;&gt;Case Height : 17 mm | Cap Height / Box Walls Width : 2 mm | Box Sides Fillet : 5 mm&lt;span style=&quot;background-color: initial;&quot;&gt;&lt;br&gt;&lt;/span&gt;&lt;/div&gt;&lt;div style=&quot;&quot;&gt;&lt;span style=&quot;background-color: initial;&quot;&gt;LED Supports (2) Height : 5.8 mm | Walls Thickness : 0.8 mm | Jack (3) indent : 1 mm&lt;/span&gt;&lt;/div&gt;" style="text;strokeColor=none;align=left;fillColor=none;html=1;verticalAlign=middle;whiteSpace=wrap;rounded=0;" parent="1" vertex="1">
          <mxGeometry x="4" y="-40" width="466" height="30" as="geometry" />
        </mxCell>
        <mxCell id="Mw_88Z8rka56BvABdyxa-12" value="&lt;div style=&quot;&quot;&gt;&lt;span style=&quot;background-color: initial;&quot;&gt;&lt;br&gt;&lt;/span&gt;&lt;/div&gt;&lt;div style=&quot;&quot;&gt;Box Top / Bottom Fillet : 0.5 mm | Cap Supports (1) Fillet : 5 mm&lt;span style=&quot;background-color: initial;&quot;&gt;&lt;br&gt;&lt;/span&gt;&lt;/div&gt;&lt;div style=&quot;&quot;&gt;Cap Supports (1) have a 45Â° angle base for easier printing&lt;br&gt;&lt;/div&gt;&lt;div style=&quot;&quot;&gt;&lt;span style=&quot;background-color: initial;&quot;&gt;&amp;nbsp;&lt;/span&gt;&lt;/div&gt;" style="text;strokeColor=none;align=left;fillColor=none;html=1;verticalAlign=middle;whiteSpace=wrap;rounded=0;" parent="1" vertex="1">
          <mxGeometry x="484" y="-40" width="346" height="30" as="geometry" />
        </mxCell>
        <mxCell id="Mw_88Z8rka56BvABdyxa-13" value="" style="endArrow=none;html=1;rounded=0;strokeWidth=1;" parent="1" edge="1">
          <mxGeometry width="50" height="50" relative="1" as="geometry">
            <mxPoint x="475" y="-4" as="sourcePoint" />
            <mxPoint x="475" y="-42" as="targetPoint" />
          </mxGeometry>
        </mxCell>
        <mxCell id="Mw_88Z8rka56BvABdyxa-16" value="" style="shape=image;verticalLabelPosition=bottom;verticalAlign=top;imageAspect=0;image=data:image/png,iVBORw0KGgoAAAANSUhEUgAAAO8AAAC3CAYAAAD6rQkjAAAACXBIWXMAAC4jAAAuIwF4pT92AAAF8WlUWHRYTUw6Y29tLmFkb2JlLnhtcAAAAAAAPD94cGFja2V0IGJlZ2luPSLvu78iIGlkPSJXNU0wTXBDZWhpSHpyZVN6TlRjemtjOWQiPz4gPHg6eG1wbWV0YSB4bWxuczp4PSJhZG9iZTpuczptZXRhLyIgeDp4bXB0az0iQWRvYmUgWE1QIENvcmUgNi4wLWMwMDUgNzkuMTY0NTkwLCAyMDIwLzEyLzA5LTExOjU3OjQ0ICAgICAgICAiPiA8cmRmOlJERiB4bWxuczpyZGY9Imh0dHA6Ly93d3cudzMub3JnLzE5OTkvMDIvMjItcmRmLXN5bnRheC1ucyMiPiA8cmRmOkRlc2NyaXB0aW9uIHJkZjphYm91dD0iIiB4bWxuczp4bXA9Imh0dHA6Ly9ucy5hZG9iZS5jb20veGFwLzEuMC8iIHhtbG5zOnhtcE1NPSJodHRwOi8vbnMuYWRvYmUuY29tL3hhcC8xLjAvbW0vIiB4bWxuczpzdEV2dD0iaHR0cDovL25zLmFkb2JlLmNvbS94YXAvMS4wL3NUeXBlL1Jlc291cmNlRXZlbnQjIiB4bWxuczpkYz0iaHR0cDovL3B1cmwub3JnL2RjL2VsZW1lbnRzLzEuMS8iIHhtbG5zOnBob3Rvc2hvcD0iaHR0cDovL25zLmFkb2JlLmNvbS9waG90b3Nob3AvMS4wLyIgeG1wOkNyZWF0b3JUb29sPSJBZG9iZSBQaG90b3Nob3AgMjIuMSAoV2luZG93cykiIHhtcDpDcmVhdGVEYXRlPSIyMDIzLTA1LTExVDE5OjQ1OjM0KzAzOjAwIiB4bXA6TWV0YWRhdGFEYXRlPSIyMDIzLTA1LTExVDE5OjQ1OjM0KzAzOjAwIiB4bXA6TW9kaWZ5RGF0ZT0iMjAyMy0wNS0xMVQxOTo0NTozNCswMzowMCIgeG1wTU06SW5zdGFuY2VJRD0ieG1wLmlpZDplODQ5MDM1MS0xYmYzLWU5NDctYjk2Mi0yNjJjZmY4N2QyODEiIHhtcE1NOkRvY3VtZW50SUQ9ImFkb2JlOmRvY2lkOnBob3Rvc2hvcDpiODE5Y2M1Zi1mNDQxLTkwNDctOTlkYy0yOWMwNzJlYjVlMzQiIHhtcE1NOk9yaWdpbmFsRG9jdW1lbnRJRD0ieG1wLmRpZDo5NmNmM2JkNy1iNzJjLTUyNGQtOGRiZC04MGNmMmNiZDA5MWEiIGRjOmZvcm1hdD0iaW1hZ2UvcG5nIiBwaG90b3Nob3A6Q29sb3JNb2RlPSIzIiBwaG90b3Nob3A6SUNDUHJvZmlsZT0ic1JHQiBJRUM2MTk2Ni0yLjEiPiA8eG1wTU06SGlzdG9yeT4gPHJkZjpTZXE+IDxyZGY6bGkgc3RFdnQ6YWN0aW9uPSJjcmVhdGVkIiBzdEV2dDppbnN0YW5jZUlEPSJ4bXAuaWlkOjk2Y2YzYmQ3LWI3MmMtNTI0ZC04ZGJkLTgwY2YyY2JkMDkxYSIgc3RFdnQ6d2hlbj0iMjAyMy0wNS0xMVQxOTo0NTozNCswMzowMCIgc3RFdnQ6c29mdHdhcmVBZ2VudD0iQWRvYmUgUGhvdG9zaG9wIDIyLjEgKFdpbmRvd3MpIi8+IDxyZGY6bGkgc3RFdnQ6YWN0aW9uPSJzYXZlZCIgc3RFdnQ6aW5zdGFuY2VJRD0ieG1wLmlpZDplODQ5MDM1MS0xYmYzLWU5NDctYjk2Mi0yNjJjZmY4N2QyODEiIHN0RXZ0OndoZW49IjIwMjMtMDUtMTFUMTk6NDU6MzQrMDM6MDAiIHN0RXZ0OnNvZnR3YXJlQWdlbnQ9IkFkb2JlIFBob3Rvc2hvcCAyMi4xIChXaW5kb3dzKSIgc3RFdnQ6Y2hhbmdlZD0iLyIvPiA8L3JkZjpTZXE+IDwveG1wTU06SGlzdG9yeT4gPC9yZGY6RGVzY3JpcHRpb24+IDwvcmRmOlJERj4gPC94OnhtcG1ldGE+IDw/eHBhY2tldCBlbmQ9InIiPz6GNQXxAAAn8UlEQVR4nO2deZxcVZn3v7e7ekt30tkDhCRA2AKEsIQo8IKAgCOL6Os2yoyKIyjO6MwoijqIzvjiMoL7BgQFdByVURRFQcc4wiCb7GEVyIIJBLOSTjrpper943dP33Nv36q63V1V91bV+X0+9Um6q6rr1jn3d579ebxCoYCDQ6Xged4CoAVY5e6t6qIl7QtwaDj0ANOA1rQvpNHhyOtQMXie1wrsDRwI9KZ8OQ0PR16HSqIbEfdooC3la2l45NK+AIfGgOd5APOBlwEzAS/VC2oCOPI6VAptwCIkdftwWl3V4RbYoVKYDiwD9gDagcF0L6fx4cjrUCnMBY4FJiHiDqV7OY0PR16HCcOTwXsIcDAyxfqBgVQvqgngyOtQCXQB/weFh/LAizjJW3U48jpMCL6XeX+kMrcilflpHHmrDkdeh0rgFcBC//87gHuB4fQupzngyOswUcwAzkCOKg+pzHelekVNAkdeh3HDV5lPBJYi4g4BDwDPu6KE6iNTSRr+zWCjE9gLqWSzUPpdG7KtPKSaDQE7gS3AOmA1sBUYuXvcjVRZWPs0FXgrivECbAduwqnMNUFq5I0QtQPFCRch58d8YIH/u1nAZOTRbCUgrkEBOUl2o8yeF4H1wFrkOHnM87yHgE3IE6o3OUJXAqcBpyANroDW+7ZUr6iJUFPyWoRtRZk4h6J0uiP9/++JSsrMdSXNj+3w3zcDkd4w00jlF4CngD8CdwD3e563FSg4Eo8bc4G/Q+V/ALuAH6HD06EG8Gpx8/qk9VDC+uHAychDeTDa/Baqn8heQOpcH7AKkfjnyLmyHUfkRPD3sgO4GPgI0ogAHkeOq9XgNJtaoGrkjajFc4HTgTcBRyEJOZZi7QKBNLX/9fxHi/X7pIdAHoU1HgduQbbaw0Ryct1NGIa/rycAy1H5H0i7uQT4MpB3a1YbVJS8EcJ2Ixv2HOD/AvuhE7sUuQxJjQ27A9iMnFFb/Z/7/OdAB0A3UpmnIsfJNP/nTqR+J1HBB4HnEYmvBe7DT+9zN6Jg7e0M4GrgNWj988AfgDci88StWY1QDfJ2AYuBvwZeC8yjtG2dR2TcBjwLrASeANYgx9OLyNm0g+JZOx6KM04D5iB7em+klh8KHIBuuq4E17IFOV2uB273f256aWKpyx8APk6gLm8G3gbcDI64tURFyOtvbCuStG/1H3tTXDUeRsnrq4C70cm9EhF2C5UrJ2tF+bamNcsxKAf3QGAKInJcrDuPJP3/AN8Bfo8kftPaxZ7ntQPnAZ8hcFINIPX5IrSfjrw1xITIa6lSc5B6/H5EjLgWKAUkYf+MSHEL8CBSV/ux4rKj3pjwGmPixFG0IafZgSi54FSkJUwmXiIPI6n/K3ST3oUl/ZvhRrXW9HTgm8j8AR1wDwLnIk0JaI41yQrGTN4IQbpQds37kKexO+YtBUTOlSiU8GvkkewjhrDV2PwipM4hIi8BzkQ353xkK0ffMAw8B/wHUqefAYab4Ub1PK8FeBVwBXAQgaayHu37TcBQM6xF1jAR8k5FTooPo9M4qn7mUezvbuB7SPVch6Rv6ENrtfElJHMHsC9KOngzksbdjFb7dwOPAV9HN+3GRtWjrbU6AfgSisWbX/Yhu/dq5ItwEjcFjIm8Vrx2EfDPyLadFHlZAdlC96LN/R1SjUPOpqxsdoTQrSgd83ikDh6PbGb7YCqguPAtwL+hUFMesvOdJoLIeixBB9WxBGuwC/kBPob8Ag3xvesRicgb2dAjkNPilYy2bfPICfVN4KcoRXHE+ZTFTS4hjacBxyEnzclI07BJPIwOpatRfHObeSKL3zMpLOfjqcDlyFtvFmkQ+DHStp4z76nn71vXKBQKZR8+upBT6hF04xasRx4F6m9A0qqbmLhqks9K61EC0/3v/UvgJf+72t99N3JkvY7IYZb2dxrn9/eQ/b8y8j0HgF8g86KlXr9nIz2SbmgHyo5aHXPzDiMJexHKTR4VHkr7S455UeIxB7gAuJ/AbrcPry3Itj/crEHa32Mc33kK8EFgQ2SfB9DhdYhN3LSvudkfSTZ0EvBOpCbZG5pHatQK4CSU1VTXpC3y/W20Io/rZ9BBNhgh8RAyG/4VVUNleh0iWAR8myAKYPa4H6nKBxE5mNO+/mZ/lNvUduAtyLaLSpp+4PvIM9vR6JsaQRdy4lyH4sBRM2I38rK/Jctr46MbmQUmhm1/jx3ANaieujWL36GZH7EOK8uJcyJKTjgg8pI+4ErgKyj8Eyq+jvubjYAY51YvCi+9D2VvdVnPGa/0b4HPA/fgr1Pa62M5pRYD5yOTaKb1kjxKe/wCcshthPSv2yGMUeS1wkEHoFP3eALnUwE5bS5DyQp/oYHCJOVQxDPtoaqpdyDzIprLPYxu/p8jMjxJCk0BYqq83oCIa9Rh84IhVFT/aXTN2/Dj8s2wx/WEYuTdF0mL1xE4KArIo/zvwNeQg6ZpNzWGyO2o3PHdwFmMnlE7jIosfovipLdTgzBa5DpnoGyp89FoEjtGbzLhbkWH8yO4yqpMI0Ref6MnAR8CPkrYXtsJfA6pyy/iekQBsSSegsyNC1F2Ujfh0EoeSeIViMS/o8Ikjrmm2aiE7+0oTh91Lg4h8+cLwH8ijWoEzby/WUYceU9AObzzrNcNIufMx/B7QbkNDaMEYd6FwkfRnOk8sokfBX6G0i3/hOU/GMsax3z+JJRk8kaUZDKfiPPMv4aXUL7511Ad887xfL5D9WEJ1xnA+hHy+k9MB74FvJ5AWuSBO1GM8wmayMYdDyIk8oB9UDOCt6FqpmhDggI6HDej9b0flUjeg6ThKPu4RKHFIhS2OxYdGAvQZkfTO40JdC/SpFYQadBnf55DerD2uhvtaS+6Lx7xCoWC7aR6PfIuTvXfUEAq8gWoLG4Q3KaWQhFitSI/wjmoScHBjCaVwTAKNW1CsfVVqEPFNv/3w2ivOv3HbIJum3MI2uPGXcgwCv88hFT236Aw4LikvUN1YN1DLagW/eXIR7EA+F9k2rxok3cuUo1PIdj4AZSQ8EUaJHe3loghcgsqfDgZqbPHIMdWu3lLzJ+JxtexXttCssb5RrLfA/wAdQpZH/l7+jC3t6nDum9ejcKQS9BBvcb/+Y+FQmG3CWm0ICfLMYTDQisRy7eD29ixwjoYDfKoGcF3URhmMdqgU5Bk7kVS0yakabIHyZv25dHBux1J7hXIrr3P/92ojXR7my6s+2QmighcgKIX3Wi/tqCkKJOeOxKPnINU5sn+zyZL6Cq0+c5BNU7EOAQNtqJw0e0olfJwpB69HMXYp6Okj3aCOKxHfBfNYUTWnciTbXpU3406Yo6yZ6PX5lB7RO6HKchf8V7kaOwhOLR3Aj9EmnH/iO/Df/KVyMM8x/+5gOyi16OmcG6jq4Ai9nE7MmEORE0OFiBVeyoisyGxmRCxDanAa9BePY1CPbspAreX6aFIfsBxKCpxBkF/MBAP+5DE/RTa54LZP9MadRlyPxsMofKv58BtdiXhb14vaoS3CbinUCjkrU0dQNrOqkp+rtvDzMEDDkP14m9BjsdoVGAjqhX/FrpXQjB9nI4mbE9tJ5I84FAxdKBQzj8jG/QRYEeRTLdxwRE1GyixhwsQYf/O/3+0qcUQui8+hTq29Jsn7L3NoTDDIsKOqlUoB9fdCJXHDJR2eiRKkOjA7wNlw617Q2IW2vsLUYeSKGmNmnwjkriPUsL8MeTdy/pdHtm7bmBUdbAQEbcTxW+LNZJ3aAzkUCThTNQXbVQJLUEt+GOo2d/NKLRXMv6eQ7q2Xco2jJqqDWbl9Pc8rwMlNmwB1mblusaJ+f7DQwkSRU9Wh/pCRE1uQSnGZ6OKs0OJH/eTR4Lye6iK7xkSmqs5FJKw7d3d6KbKBPy+wUuQjXAr8rjVpbTyPK8NEbcbdWH8M37ljkNDYS4i7TuRpO2MeY1RkX+L6uLvQ2ZU8IIyQiqH0vTs02AAv6VnRrAnshNOQskG4/fkpI8egnrfPqQ2Z1KNsKTIHihs1Yvix6uQVpbJ664FijiiOpHz6WyUAnso8aQFcexx4KvIIbWBcUziyDE6D9YM/kodnud1oRjYqehmf4j69oDPQKdyK5K8GzPMgRyKLX8YFe53oRvuMpRfO8rJ1qToQPH4s5B2eChBumsUJsPuepS5uArLkzxW5Pw/aHuaAVrSvqn8020/VJEzl6COuJ4xBYXmPHT6bk73ckqiBxVSvJfAwXI8ynU/Dx2kDY8S4R7jiHoDqhjbn+ITKAtIm/0Zsmsf9X+eUDOLHGH70fN/1+l5XtrhijnA36Cc683IA7cr7UNlgphEUAg/iFXskUH0IBXQ9oy2oMSCJTQJeWMwGbUOeiPKQFxA6bGx/cAdwDdQae1GKuSzySH1LU/gtGolpo1rLeF5Xic65c9GttYNyAtX7+gk8Oyb0r+sooMgXdZGDnn+mw2TkEr8JkTa+ZQuFBlEZsaVqJx2PdK2KiZ9cuj0H7YupBM5idKEaei2ANkI3wNeqnOpC7KFcgQFBln+QrtKPDe9ZldRA5TJZutEkvZvkYpcau40iEtPAdeiFOM1qLCg4m2jcsiO7CcwsltQVUsLMZUo1YS/iD1IJVnmf/730WIMF39n3aCVcIVQVeCv42RU4nkC2uOfooKFpOM4XyLemeJR4/siBZih7IcjJ9TZSAsptm+m1nodqvz5MXJG9VHFtcohcb7Zv1jzu4P8n7dU64OLYCqqrHgHIvEfkGdue42vo1qwa3VzFPdKThTTUd7svyASF5DUuBjVgya5oXZg9bOKYDADPpFqwENrdwyStKf7P5dqeFBAh+JPEHGfQPdr1buTGPKuRp4zg4XAAs/zttRig3xJ0Y4KJP4RqSabUfA6VAZV5zCTFUCne7E44ESxBHg/wYEM8ApU4P0BJBHKoVTIMEcKmtlEkKDQYwqqpX4HKoYvZxqY5n2/QCryQ8iDXLMEohwS9Y8hr67R5Wci4/zBal+Av6idqFHbRSgjJY/iYCtorAwkOyzXhjKtqoHFKO3VRivBqNIk5DUqfhzmIgdOkr+TdUwCXob6bZ+G6mmLMb3gP7cFJVdchziymRTyD3LIrnkInbKmCXcHymi60fO8nVWWeq3IMfUxJB3aUPeHq/HVtgaRuqBT2ahTOcKSsZKwJyDYmI0O5j8n+Bu9BI0Io1gITPM8r69O9yaHKnyOR5L2RIIuMsVgYrW3ouZ9DxFD2lquh4lPPYo29ED/Zw8RaQFyd1cFft7yNKTivQapzhvQtIY11frcFDFAoFa1AVOrZDuOjKGJYBIws9xn+trQ3mj/4zAPaUrPFXm+5khY/9yKDrBTUaLJywhPjYjCLNI24L+RenwfKowfIuVogSHvKtRZcH9ky3hINToeGeAVvUir1WwvssHORSffTtTd8FYyVNVUQQz6Dw8dVDNKv3zceBFpUtHSs1ZEPLsXVhxywFKKhwx7EAHu9zxvVCOBJDBkq9Eee4i0pyG7/2iClkLFYAoHbkGS9gECSZuJG9OkQW5EhLHzVbuA1wIzJtLVoQSmIe/n+5CzYBjlzJo5SI2IfoLNryZ5NxFvj3roQO4us6fTUP1plPwGrcBbUfpqa6m/5Xle9DHd87zFyKNbLbPBoAMJpH9AqYlXofZD0WIcG0Y9vgF4M9IKV6AikpEki2JjN2sJI3kHUerW4yi+CvpyxyHV4pdU6LTxN7oDLcp70CmeR43TLgbWQkPZuTZ2oQPSpKFWK9nhJSR994p57pVIq3qKyJ5aJDwExYdLYV/kYPwEsNbzvKiaPhXlCxyOVOwpaK+7kYP0J1TP4dWONIxz0CGzmPJhuQISGr9E4UnjPc6sw9TOyVyL8oeXEJy4vSi/+C7P8zZNhFDWjTEHOafehU7AAqof/ijqE1034YdxYAdB4kMLQZFCpU+qXUhSxGEuqoC5yvO87TF7uifqr1VOK2hFCQzzkT3Yh+6bWYisC/3PmkzQ6HAIqZ43oE6XY0q8SaABtiHSvh4NVYuOL41DHpH0ZmTTPoxs3NRt2rKIiPul6FTME6TvbUOnV9t4J3hbmIM64e2wPmMrIu6I46Bak8TTfiBi3Oh/90F0wrdU4XNmoBvR3kf7sQbFNKMJ9bOBSxH5o+8ZKPK38tb3GSrxmQWUvPDZ8e51EXhIoh+JKp7+REC8Uo8hZC4uR87ZWUg6h4ie9j1Tcj0iCzMZ+CRydpgvOYwynfaf4GIvQ7aDsfnyiMRfJBKSSHtRqrbYusm+43/3YTQZsBrk7QS+XuLGzaORJ0cS5FrPQwO1d8S8foBAzS1HimKft92/ppnj3eMYTELOp8uR0zUpaZ9HVT4nIdOlaFVQ2vdMyfWIWZwjkepgTtA8Ook/geVgGMNiT0WxtMcJMowK/t/8NpZ6lvZiVH2xdZN8yVrX24DWKnyOhw7FUlJwyN+TL/uPPxIvXc2UyGXANwkf7EmJux7NfJ41kb220Ils6X9H2YFJSfssmjG9DDnlSpXyZf6ejFucLuRIMjNtzAZsRZ7hrnJfykcLGuR8FUHhsXn0o0qhkVBE2gtRk8UWqf6V4BB7EOiuwueABmUnJVep59chx89kFPf9LHLslPubRtreimzsXiyVtMg1l0IrOuhPRFJzPWFhUOwxgJxzH0eEn0oC0ha7ziw9ii3gTFQZEV2cdchJ0RX9chHshYi+kvCpmEfEvZagg2LmF6nCpPoQMh2Mh31hlT7nCkYTsxxRo48NSGsyKYOt/v9fi7yym5AGNeR/pwGkdq9Bh7MpoQt5ektccxxakGr7Kv9vbiQZaYdQ7/FLkRO2lyLpnmnfF+N95KJfwvfobUZ2xEJ0WhmS7YnisEehooF1VohgMgoNnIpO6iMIB8ILKIRxHVJ31vu/K7d5jYYd6MYyzf/mUZ1GA9EbtYBu+iRSJ4+ypz6Ophm+ZL1/C0pcuAd5lRcR9OV6Aamxq1GW10tYoZZx7LOp8DmP8nnHBoPIafVddMCsRmveCCWlIRTbyDyamv4JpKLsSVDLOB34J1Rz+zAiYQ7dhAcjj3LUa2d6034aDTTbDE1HWoNt6AbrJBgqVmm0M3oPPESoJxEh4hIVjGZ0G7LN7ySIDNjYhfZ9PXJmRnugjcIY97rHv8bzkcRNQtoBlAV1LWqn+jzK2GvY0OMo8ppF9jxvCM10vRTNTNkz8r4FSPW1EbfAZlE/g7zNjVKbO170IYJMRnHRuVXIb+5Fpk+B8J5sAi5BEvNspE5O81+3CeXt3uT/+wJ+N424a4vEXEe9IPqeBDFaMwDg5UjSnohIXK6Wtt+/3qtRhp5pLjFC2kYVEuVUqH7UyaIfkXh/wupYqRSzPLoBfoA65j2NVYHRqAuaAFsJEjXaiO8TNVFMQ57d6P5sRPtwL3IkzUCZTwWkEZi0yrJZRRXcv1a0Bq9ApD2e0sUCEJD2bmSG3Ybs835KSP9GQ8n4ln9a9qMY31o0IMnYHtHMFbNoA+j0s0unRnKmm5i0Zk23EWgfrfhxzwrD9Ie2kUf233a0Rxv9R1FUea88dMCcgrp+HEv5+mYTtrwdqcd3oHutoo3d6gUlJa9F4F1ooR5HWVino8WejVS/PDqxn0V20gqUqVXVHj51ii3I5i8QeFITw9+P+ejGfxFYVygU8pHn5zK6GL+ASj/Tbp9rulKejDzZyygvac39Zcry7kdagok5NyUSBan9G8LYRbei2b3TkNSYjBZxKzH2hvkbDiPYhlQ84wCcxthaysxDueFHowPy857nrbSe70S9laPF5f1o5mvFD9OEVWdtKIR4MpK0S4kfvGWjgA66XyHvsSkWCLXnadb7K1Gw2nJimV8NoBtwQ7n3xMHzvFa0mbuSvL7B0Ed48sMUVJS/OeEaLEWhuD1Qq6Ih4IPopvaQX+IcRjt61iDNqNbIoVjv6UjSHkVMDnEEw4i0P0ex3UeRxpL9YoEaInGmCVSUYCbkBIH60ywwCfF5RLAeJJGSjj5pI9i3TlQ00oVi55uQVDsk8p48UjmLVRpVAy0oQvFqVAC/hPJleXkUzroRhRSfJAitOdJGMCbyVhBD6EbqIbDdMls3WQVsRdKlBRFvHspGS4KVKAl/BjoEO1HM/VjkGDyQ8MT1ApJaNwHj6noxRnSi73MGmuFj5tKWQh5pcTei6MTjBKR1KIK0yAtB68xmPFX70PduQzd7XNF8MaxCobeDCezaHIrdxmEYhfseorrOw3bkSDsT9TwuNeISgnDiGuCHKB33GWrU87gRkCZ5DcY94rCOsRXZ+5PQTT8W8vajYvbjUZuWUqpoHmVALWecM5fHUAB/FrJpDyMoM4yDSbN8FsVob0JhyIZMYawmUiGvO03ZhlL3phMkKYwFW1DW225UKBKX6jiI4qH/QnXGxbQQSNoLkCZQ6iAxpH0GOaF+hki7HRdOHBeyIHmbCn7obStBosZ4elkVUKbUJ5F9eC5qBteGCPICsh+vQ4kZu81nVwCdqH/VOchZdhDJSPu0fz03+9e0EydpJwRH3nSwmcC73MIYukhaYTtTonkVqp7ZHx0CLyFyPEfQi6kSxO1A+exno75miyjtiDJleStR04UVyL5tirzjWsCRNx1sIRzrnYqk5ni8q32ot/YTxV5QjCBjSK7YB9m0b0dhqFI2LShycD+ytX+PKnxGJe84TAyOvOlgO7qhTdVPD5K+ieOwNZBYrSi54rWoNC8agorDLlQmeg1BWV5TFQvUEo686WAQJVTkEUm6gXme572QETVyb2TTnk8ySWtIuxylzq4j6EDpUCU48qaHrQTkHWustxroICDt36A4bTlH1G7UuG45TVqWlyYcedNDH+F2ONXoqJEEppvHGaiedjFSj0tJ2n4UP74GuIsipM2IFtGwcORND6a/UxciS8XnFpVxSJmhY2eifOjDKG/T7kCF/MtR14oNNHlZXppw5E0PLyFp1Usw+qRW2IsgueJwyqvHu1DXiuUo8WMDTVoAnyU48qYAP1FjO8GgLdNStdqYCfwV6st9NKVzj0GJFHeh/lB3ovCWc0RlBI686WEbAXlNUX410IZK80wR/DGULoI3/aF+j2YpxZLW2bPpw5E3PZh2OBDU9SZGggQLkzN9KiLtMspX+ewkKGS4E9XWOps2o3DkTQ/bUazXYAqyPStR1zwbtU69AA2T7ir98hHSXuP/62zaOoAjb3roQx01TJbVJJSbPJFuF71ILX4PGqLdS7x6bEjZT2DTOtLWGRx508MQUp0NulBXkfGQtwuNlzkfFQ6YsFOUuDZpb0eS9h5E2mbsJ1bXcORNF30E84PasUZgJiwaaEe9oc5DQ71mUHrCwA4kYb/t//sXLNI61BccedPFboJKm3aSe5xbUPH7O1DLmVkUmYBH4D2+C0naO5B0d+pxncORN13YZXKtqDSwFDrR5Ma/RgX48ylOWpBUvRfZtLfh4rQNBUfedGFm24JIOKXI69pRIfwZwDtRpU903IyByYj6Ixo3Y+ppR0jrbNrGgCNvSvCzrPoJyJsDeiITA1tR0cDpyBl1JMXL84x6bIrgb0PqcTM2+GsKOPKmBGsGlCHvSKKG/9x0lBX1bkpPzisg+/Uh5Ij6DaqndTZtg8ORN11EydvtP5YC70JqcqnmdAOoAd01aIbUczibtmngyJsuBggyqjxUDH8p6sq4F8XDPoNofs+1BKTdiSNtU8GRN10MEkheD82qPQuRNs6uHUSN5q5HHSNNs3JXMNCEcOStIhIkWkwiyDtuZfRYTgjGgpgJAz9DI0+cpG1yOPKmgx7g5cDFlJ6WYBqofxfN8/kTroWqgw9H3tqiHbWbeTuaMzSLeLvWjLr8CcF8WjcWxCEER97awEPjSN6Ekiz2o7gzaiPwC2TXPoJqft2EAYdRcOStPmYiR9Q/otYzpUaEbERtVx9ApB0q8VqHJocj7wRRwinVBRwF/D2aDh9XW1vwHy3+v6vRTB83VNqhLBx5K49WNBrkXDQZfi4irU1ckxW1ChUb7OP/fghHXIeEcOStLGYDrwEuJGhebsNMzluNEixWAh9H5PXw7WBn1zokgSNvZdCDGrxdCLzK/zmqIg+jkrwfonjtU8AB/utMK5xShfQODiE48iZECdt2DxT6eS9SkaP1tXmUUHEr8E3gPtRwPY/Iakr7nLh1GBMcecePHtTA/EPIMRVdS2PX3g98A/g16hZpT4Nvsd7nCOwwJjjyjh0tKNHiA2h2bW/keZPOuApV+/wXykGOa+naRvn5QA4OsXDkjaBMPvIs5EW+ENif+OKBLcCNwFUoMyqUg2w7ozzP6yDYA0N6B4dEcORNhk7UvPz9wGnETx4ww7i+glrPbKE8GdsIkja8BK93cBiBI295LEAOqfegIoKoR3gIqchXI0/yepJnRnUSqM0mjOTgkAiOvMXRDbwC+CfgBEYP5yqg6fb/BVyJVOSx9kDuQOQ1mVaOvA6J0bTkLWPbzkYFBP+AJuxFpe0gyj++AvgtMSpywkQLM1jbXIzLrnJIjKYlbxG0o6ZvHwGOY/TQ6TxKtPg2qvpZjRqnjxfdBHHhPG56gcMY4MgbYC6aPvD3BPnIBqYX8m3A5agn8jYmHpftJhzn3TnBv+fQRHDkld15NPBBVP3TSZi4eeSE+gbwA+DPWOrtePOQfbW9i0DyDqPMKweHRGga8haxcbtRgfzFKM84atvuBn4HfAGFgfqoXDinjdFlgtsr9LcdmgBNQ94YHIiypN7C6DEjedRO9Urg+6iJeaU9wZNRT2ZD3ujITweHkmhG8pqEi0vQJIJoIcEulGTxaVREsKNK1zGVcPO5PAo9OTgkQrORdzJKb/wIMI9ATTaG60bgq6hb4zoqYNuWQC+qSDKSdwA1nXNwSISGJW+MjXswgZrcE3luGM2vvRxJ3Up4kstdWy/BBHuQxHfkdUiMhiVvBAcBn0Ozf6LfeRuya78GPE189U81MI2gyboJRb3gumg4JEWjk7cTle19ktHeZOOU+n9oCsEmalsYMIPw5L9tOMnrMAY0BHmLhIH2QA3gPoDSHe0XDaIQ0KdRwsWIU6qGkm8W4aKEv+AcVg5jQEOQNwZ7AB8FziM8/6eAYqnXAl9H83/SKAboQjnTxtNdQGNNXGGCQ2I0Gnk91LXxEtTF0W5wXkB5yZehTKlaq8k2ZgDzCbSBPPJuOzgkRqOR90hkw55G+LsVgAf9535D+plMs1GdsCHvbtQqx8EhMeqWvBE7tw04CUnVowgnXhj79hI0+2ekcidFz+4cpDYb9KMKJQeHxKhb8lrIIeJ+CVhE2DG1G7gB+ASSbFmxKfciHCbahsZ3OjgkRr2TtwM4G/g3lIRhE7cPdW/8MrCGjPSH8jWGeYTt8eeRw8rBITHqirwRVbkdEfdzwL6Mrs65DJF3ZERmRhIgelHnSRNzHgaeoXo51A4NiroibwTHIYLuZ/2ugMh6BbCcZB0ca435hLWEQeAJoJCRw8WhTlCP5G1F84C+iLKmbGxERQc/IWMJD5bWsAAR2KAfNa9zcBgT6oK81o2fQwO9PovqcQ0KSMpeBvyYbHek2I+gfthoCk+mdzkO9Yq6IK+Fg1Ge8mHW7woo4eIS1Dd528gT2VNDpwCHEDS2K6Asr/WpXZFD3aKeyLsQSdZTCDundgCfQVlT22LelyXsDSwh3D3jEWBHBg8ah4wj0+S11OVpqKvjqwjnA+9A/aW+i68qZ5wEC5Gn2WAXmiLo4DBm1MMw5y5U1nc+QWzUjM9cjupwN5Lh8Zj+IdSCkkjMVEGj7j+YzlU51DvqgbxHABcR7n6RB25CLWs2kWHiWpiJcq/tqYBPAmsyri04ZBSZVJstdXkPNLz6IOvpPPAw8CmU8pivk5t/P3QQ2fHdu3CN1h3GiSxL3g5UTP9qwoUGLyCP8xNkJ1e5HFqR1LXju9uBO6gPrcEhg8gyeY8A3k14Fu4uZOP+njoZyuVrEVNRRliX/+sCGgv6cDpX5dAIyJza7N/sk9FM3AXWU3k0ke8/qA/Pso2FwDGEQ0R3IEebg8O4kFXJuxR4HWF1+S+o7G8d9aVq5hBxbZW5DzUFqBd73SGDyCJ5e9G0vtnW7waRxL0XVeHUBXwtYhZKLDHqfx55me9L6bIcGgSZIq9/sy8GTic8zWAt8D2ynbNcDIuQJmF7mX+FU5kdJojM2LyWrfsawjN8jNR9ivorm+tCUtduebMRkbduNAiHbCIz5PWxAN3sdgrk88BPqaN4qBWn3gf4K4J1HgbuBB6DunK4OWQQWVKbPZS0vz+BilkAVlCfUhfUW8vuq7UD+BGua4ZDBZAl8vagRAY7DXIn6vxYN1LXwjzgzQQjTQrASuAPqV2RQ0MhS+TdE0leW2XegLyy9SZycygzbKn1u37kdHsBnMrsMHFkyebdg3BSRgGpy2uhPm52y9Y9CFVBdfs/F1A6569xjiqHCiFLknc24Xm1edTLuN7swy7gTcDh1u/6getQC1oHh4ogS+SdRjiPeRg/m6oepK6FI4FzCVrd5FGDuZ9SP4UUDnWALKnNOUbPz+1L6VrGBEtdngpcSKD+m6mEX8XvU1VnB5FDhpElyesR7k0V/TnraAPeiJJMzKGYR3buL3FS16HCyBJ5dxG+wVuQKp1ZeJ5npG4OeCWqM7ZnEK1G/aU3p3B5Dg2OLJF3C9YEP0SIRUBHZMxJFnEoaj27J9IWTHO8rwMP4NvtTmV2qCSyRN5VhIdttaA46fz4l6cHS+KCmgZcAbyMcL3uj4D/JHwgOThUDFki71pUKmeLJ5Pr3JbKFZXHYWhg90mE85fvBS4HXkznshyaAVki71bU3mbA+l07SnbYJyLtUkHExj0NuIpwL+k8Ssb4KIpRZ2k6oUODIUvkzQO34WdU+TDFCh9BucJZMH5no3DQlUhVtlu5Pofa1N6N8y47VBlZIi9obs+NhJvL5VDSw4eBGZ5Qswsy0tbzvB6kwl+FxqvsS7B+pjvG+1EhxW6QxHVS16Fa8LJ0c/msPAL4FuGGbSB1+sfA59F8nyGojkoaORwmIcfZ3wJnokYB9qE3hOpzLwL+F6VCUq1rc3AwyBp5Qf2azwS+AuxFmMB5lB+8HLgeZS1VxK6MEDaHmqSfipIulqKYs03aApKw/w1cilIgBypxLQ4OSZBF8oKS+9+GpgLOiLysgKTdGuTg+h8US30WhWUKUJxARVRuD9myhyCJvwzZ2nujwyT6pjzqZnk9sn1XY1ULZWlNHRoXmSIvhMg1Hdm6H0Oqahzr8khN3YC8u3/y/78BJUnsQEQ3NnQb8mB3oXK9Xv9vLwAOQGSd4r8u7vMK6IC4G4WCbsdqipe1tXRobGSZvKCuGqej7KXFlC+kyPuPYaTSDiDyDiEytvh/owOR2BRDlHPcGRX5KeA7yKm2johHOWtr6dDYyBx5DSwSdwIHIofRW1HRfrWLFsyiGMm+EmVM3YIywUayprK6fg6Nj3ogL4iok1FG0xuAs1Dct53Kh7uM1H4e9Zu6GXV8XE9M7Dar6+fQ+MgseQ1iSNyDbNRlKO56JJLGXchWbSGQyqZIwPxr/848DFm3owSRB5BN+wByivURaV2T9TVzaA5knrwGRbzEk1A4aQEa5rUQ9UqeiSR1J7JrPQJ7eDdyZG1ChRBrkCq81n9sJJyiOYJ6WSuH5kDdkNdGmQyrHCJtD4FjyrxhAJF3p/8oOya0HtfHoTnw/wFPENxMjzkwhQAAAABJRU5ErkJggg==;opacity=30;" parent="1" vertex="1">
          <mxGeometry x="803" y="-23" width="21.08" height="20" as="geometry" />
        </mxCell>
        <mxCell id="sGpQJkMBHfHeCSqF3O8G-5" value="&lt;div style=&quot;&quot;&gt;Attention : Some components may need additional box cutting in order to fit properly!&lt;/div&gt;" style="text;strokeColor=none;align=left;fillColor=none;html=1;verticalAlign=middle;whiteSpace=wrap;rounded=0;" parent="1" vertex="1">
          <mxGeometry x="6" y="-74" width="466" height="20" as="geometry" />
        </mxCell>
        <mxCell id="8GOh21PxbDbfWJM2RKLW-133" value="" style="group" parent="1" vertex="1" connectable="0">
          <mxGeometry x="22.83459999999999" y="-1023.62" width="749.7380999999999" height="594.22" as="geometry" />
        </mxCell>
        <mxCell id="8GOh21PxbDbfWJM2RKLW-24" value="" style="group" parent="8GOh21PxbDbfWJM2RKLW-133" vertex="1" connectable="0">
          <mxGeometry x="377.55830000000003" width="372.1798" height="279.26" as="geometry" />
        </mxCell>
        <mxCell id="8GOh21PxbDbfWJM2RKLW-25" value="&lt;font style=&quot;font-size: 20px;&quot;&gt;Cap Bottom View&lt;br&gt;&lt;/font&gt;" style="text;align=center;html=1;verticalAlign=middle;rounded=0;shadow=0;glass=0;labelBorderColor=none;labelBackgroundColor=none;whiteSpace=wrap;fontStyle=1;container=0;" parent="8GOh21PxbDbfWJM2RKLW-24" vertex="1">
          <mxGeometry x="116.17761557161214" width="206.59852817429345" height="38.26146788990826" as="geometry" />
        </mxCell>
        <mxCell id="8GOh21PxbDbfWJM2RKLW-26" value="&lt;span style=&quot;font-weight: normal;&quot;&gt;&lt;font style=&quot;font-size: 20px;&quot;&gt;79.4 mm&lt;/font&gt;&lt;/span&gt;" style="text;align=center;html=1;verticalAlign=middle;rounded=0;shadow=0;glass=0;labelBorderColor=none;labelBackgroundColor=none;whiteSpace=wrap;fontStyle=1;container=0;" parent="8GOh21PxbDbfWJM2RKLW-24" vertex="1">
          <mxGeometry x="139.1782101157593" y="240.9985321100918" width="157.90458530316235" height="38.26146788990826" as="geometry" />
        </mxCell>
        <mxCell id="8GOh21PxbDbfWJM2RKLW-27" value="" style="endArrow=classic;startArrow=classic;html=1;rounded=0;movable=1;resizable=1;rotatable=1;deletable=1;editable=1;locked=0;connectable=1;sourcePerimeterSpacing=0;strokeWidth=1.5;" parent="8GOh21PxbDbfWJM2RKLW-24" edge="1">
          <mxGeometry width="50" height="50" relative="1" as="geometry">
            <mxPoint x="67.1847153711869" y="235.99776758409791" as="sourcePoint" />
            <mxPoint x="366.8986120373943" y="235.99776758409791" as="targetPoint" />
          </mxGeometry>
        </mxCell>
        <mxCell id="8GOh21PxbDbfWJM2RKLW-28" value="" style="rounded=1;whiteSpace=wrap;html=1;fillColor=none;strokeWidth=1.5;glass=0;shadow=0;perimeterSpacing=0;arcSize=10;container=0;" parent="8GOh21PxbDbfWJM2RKLW-24" vertex="1">
          <mxGeometry x="66.8298" y="52.33820000000003" width="301.27" height="164.18" as="geometry" />
        </mxCell>
        <mxCell id="8GOh21PxbDbfWJM2RKLW-29" value="" style="endArrow=classic;startArrow=classic;html=1;rounded=0;movable=1;resizable=1;rotatable=1;deletable=1;editable=1;locked=0;connectable=1;strokeWidth=1.5;sourcePerimeterSpacing=0;" parent="8GOh21PxbDbfWJM2RKLW-24" edge="1">
          <mxGeometry width="50" height="50" relative="1" as="geometry">
            <mxPoint x="47.1798" y="213.9982" as="sourcePoint" />
            <mxPoint x="47.1798" y="56.9982" as="targetPoint" />
          </mxGeometry>
        </mxCell>
        <mxCell id="8GOh21PxbDbfWJM2RKLW-30" value="&lt;span style=&quot;font-weight: normal;&quot;&gt;&lt;font style=&quot;font-size: 20px;&quot;&gt;46.4 mm&lt;/font&gt;&lt;/span&gt;" style="text;align=center;html=1;verticalAlign=middle;rounded=0;shadow=0;glass=0;labelBorderColor=none;labelBackgroundColor=none;whiteSpace=wrap;fontStyle=1;direction=east;rotation=-90;container=0;" parent="8GOh21PxbDbfWJM2RKLW-24" vertex="1">
          <mxGeometry x="-59.821558706627016" y="108.26966360856272" width="157.90458530316235" height="38.26146788990826" as="geometry" />
        </mxCell>
        <mxCell id="8GOh21PxbDbfWJM2RKLW-31" value="" style="ellipse;whiteSpace=wrap;html=1;aspect=fixed;strokeWidth=1.5;fillColor=none;container=0;" parent="8GOh21PxbDbfWJM2RKLW-24" vertex="1">
          <mxGeometry x="295.17979999999994" y="82.9982" width="28.14" height="28.15" as="geometry" />
        </mxCell>
        <mxCell id="8GOh21PxbDbfWJM2RKLW-32" value="" style="endArrow=classic;startArrow=classic;html=1;rounded=0;movable=1;resizable=1;rotatable=1;deletable=1;editable=1;locked=0;connectable=1;sourcePerimeterSpacing=0;strokeWidth=0.5;endSize=5;startSize=5;" parent="8GOh21PxbDbfWJM2RKLW-24" edge="1">
          <mxGeometry width="50" height="50" relative="1" as="geometry">
            <mxPoint x="312.1782537197433" y="96.99749235474007" as="sourcePoint" />
            <mxPoint x="366.1798" y="96.9982" as="targetPoint" />
          </mxGeometry>
        </mxCell>
        <mxCell id="8GOh21PxbDbfWJM2RKLW-33" value="" style="ellipse;whiteSpace=wrap;html=1;aspect=fixed;fontColor=#000000;fillColor=#000000;container=0;" parent="8GOh21PxbDbfWJM2RKLW-24" vertex="1">
          <mxGeometry x="345.90886983638774" y="71.72938837920503" width="2.5105769738052994" height="2.5124900372854664" as="geometry" />
        </mxCell>
        <mxCell id="8GOh21PxbDbfWJM2RKLW-34" value="" style="ellipse;whiteSpace=wrap;html=1;aspect=fixed;strokeWidth=1.5;fillColor=none;container=0;dashed=1;dashPattern=1 1;" parent="8GOh21PxbDbfWJM2RKLW-24" vertex="1">
          <mxGeometry x="77.17980000000001" y="62.9982" width="19.97" height="19.97" as="geometry" />
        </mxCell>
        <mxCell id="8GOh21PxbDbfWJM2RKLW-35" value="" style="ellipse;whiteSpace=wrap;html=1;aspect=fixed;fontColor=#000000;fillColor=#000000;container=0;" parent="8GOh21PxbDbfWJM2RKLW-24" vertex="1">
          <mxGeometry x="85.90886983638771" y="71.72938837920492" width="2.5105769738052994" height="2.5124900372854664" as="geometry" />
        </mxCell>
        <mxCell id="8GOh21PxbDbfWJM2RKLW-36" value="" style="endArrow=classic;startArrow=classic;html=1;rounded=0;movable=1;resizable=1;rotatable=1;deletable=1;editable=1;locked=0;connectable=1;strokeWidth=1.5;sourcePerimeterSpacing=0;endSize=1;startSize=1;" parent="8GOh21PxbDbfWJM2RKLW-24" edge="1">
          <mxGeometry width="50" height="50" relative="1" as="geometry">
            <mxPoint x="136.98005968966433" y="134.30999999999995" as="sourcePoint" />
            <mxPoint x="69.98404215264819" y="134.312752293578" as="targetPoint" />
          </mxGeometry>
        </mxCell>
        <mxCell id="8GOh21PxbDbfWJM2RKLW-37" value="" style="ellipse;whiteSpace=wrap;html=1;aspect=fixed;strokeWidth=1.5;fillColor=none;container=0;dashed=1;dashPattern=1 1;" parent="8GOh21PxbDbfWJM2RKLW-24" vertex="1">
          <mxGeometry x="77.17980000000001" y="186.9982" width="19.97" height="19.97" as="geometry" />
        </mxCell>
        <mxCell id="8GOh21PxbDbfWJM2RKLW-38" value="" style="ellipse;whiteSpace=wrap;html=1;aspect=fixed;strokeWidth=1.5;fillColor=none;container=0;dashed=1;dashPattern=1 1;" parent="8GOh21PxbDbfWJM2RKLW-24" vertex="1">
          <mxGeometry x="337.1798" y="62.9982" width="19.97" height="19.97" as="geometry" />
        </mxCell>
        <mxCell id="8GOh21PxbDbfWJM2RKLW-39" value="" style="ellipse;whiteSpace=wrap;html=1;aspect=fixed;strokeWidth=1.5;fillColor=none;container=0;dashed=1;dashPattern=1 1;" parent="8GOh21PxbDbfWJM2RKLW-24" vertex="1">
          <mxGeometry x="337.1798" y="186.9982" width="19.97" height="19.97" as="geometry" />
        </mxCell>
        <mxCell id="8GOh21PxbDbfWJM2RKLW-40" value="" style="ellipse;whiteSpace=wrap;html=1;aspect=fixed;fontColor=#000000;fillColor=#000000;container=0;" parent="8GOh21PxbDbfWJM2RKLW-24" vertex="1">
          <mxGeometry x="85.90886983638771" y="195.72938837920492" width="2.5105769738052994" height="2.5124900372854664" as="geometry" />
        </mxCell>
        <mxCell id="8GOh21PxbDbfWJM2RKLW-41" value="" style="ellipse;whiteSpace=wrap;html=1;aspect=fixed;fontColor=#000000;fillColor=#000000;container=0;" parent="8GOh21PxbDbfWJM2RKLW-24" vertex="1">
          <mxGeometry x="345.9088698363877" y="195.72938837920492" width="2.5105769738052994" height="2.5124900372854664" as="geometry" />
        </mxCell>
        <mxCell id="8GOh21PxbDbfWJM2RKLW-42" value="" style="ellipse;whiteSpace=wrap;html=1;aspect=fixed;strokeWidth=1.5;fillColor=none;container=0;" parent="8GOh21PxbDbfWJM2RKLW-24" vertex="1">
          <mxGeometry x="296.17979999999994" y="157.9982" width="28.14" height="28.15" as="geometry" />
        </mxCell>
        <mxCell id="8GOh21PxbDbfWJM2RKLW-43" value="" style="ellipse;whiteSpace=wrap;html=1;aspect=fixed;strokeWidth=1.5;fillColor=none;container=0;dashed=1;dashPattern=1 1;" parent="8GOh21PxbDbfWJM2RKLW-24" vertex="1">
          <mxGeometry x="299.26980000000003" y="87.08820000000003" width="19.97" height="19.97" as="geometry" />
        </mxCell>
        <mxCell id="8GOh21PxbDbfWJM2RKLW-44" value="" style="ellipse;whiteSpace=wrap;html=1;aspect=fixed;strokeWidth=1.5;fillColor=none;container=0;dashed=1;dashPattern=1 1;" parent="8GOh21PxbDbfWJM2RKLW-24" vertex="1">
          <mxGeometry x="300.26980000000003" y="162.08820000000003" width="19.97" height="19.97" as="geometry" />
        </mxCell>
        <mxCell id="8GOh21PxbDbfWJM2RKLW-45" value="" style="ellipse;whiteSpace=wrap;html=1;aspect=fixed;fontColor=#000000;fillColor=#000000;container=0;" parent="8GOh21PxbDbfWJM2RKLW-24" vertex="1">
          <mxGeometry x="308.9988698363877" y="170.81938837920495" width="2.5105769738052994" height="2.5124900372854664" as="geometry" />
        </mxCell>
        <mxCell id="8GOh21PxbDbfWJM2RKLW-46" value="" style="ellipse;whiteSpace=wrap;html=1;aspect=fixed;fontColor=#000000;fillColor=#000000;container=0;" parent="8GOh21PxbDbfWJM2RKLW-24" vertex="1">
          <mxGeometry x="307.9988698363877" y="95.81938837920495" width="2.5105769738052994" height="2.5124900372854664" as="geometry" />
        </mxCell>
        <mxCell id="8GOh21PxbDbfWJM2RKLW-47" value="" style="endArrow=classic;startArrow=classic;html=1;rounded=0;movable=1;resizable=1;rotatable=1;deletable=1;editable=1;locked=0;connectable=1;sourcePerimeterSpacing=0;strokeWidth=0.5;endSize=5;startSize=5;" parent="8GOh21PxbDbfWJM2RKLW-24" edge="1">
          <mxGeometry width="50" height="50" relative="1" as="geometry">
            <mxPoint x="309.1798" y="93.9982" as="sourcePoint" />
            <mxPoint x="309.1798" y="54.9982" as="targetPoint" />
          </mxGeometry>
        </mxCell>
        <mxCell id="8GOh21PxbDbfWJM2RKLW-48" value="&lt;span style=&quot;font-size: 10px;&quot;&gt;&lt;font style=&quot;font-size: 10px;&quot;&gt;12.5 mm&lt;/font&gt;&lt;/span&gt;" style="text;align=center;html=1;verticalAlign=middle;rounded=0;shadow=0;glass=0;labelBorderColor=none;labelBackgroundColor=none;whiteSpace=wrap;fontStyle=0;container=0;fontSize=10;" parent="8GOh21PxbDbfWJM2RKLW-24" vertex="1">
          <mxGeometry x="315.1798" y="98.9982" width="57" height="14.73" as="geometry" />
        </mxCell>
        <mxCell id="8GOh21PxbDbfWJM2RKLW-49" value="&lt;span style=&quot;font-size: 8px;&quot;&gt;&lt;font style=&quot;font-size: 8px;&quot;&gt;13.5 mm&lt;/font&gt;&lt;/span&gt;" style="text;align=center;html=1;verticalAlign=middle;rounded=0;shadow=0;glass=0;labelBorderColor=none;labelBackgroundColor=none;whiteSpace=wrap;fontStyle=0;container=0;rotation=-90;fontSize=8;" parent="8GOh21PxbDbfWJM2RKLW-24" vertex="1">
          <mxGeometry x="298.17980000000006" y="61.9982" width="42.99" height="14.73" as="geometry" />
        </mxCell>
        <mxCell id="8GOh21PxbDbfWJM2RKLW-50" value="&lt;span style=&quot;font-weight: 400;&quot;&gt;(2)&lt;/span&gt;" style="text;align=center;html=1;verticalAlign=middle;rounded=0;shadow=0;glass=0;labelBorderColor=none;labelBackgroundColor=none;whiteSpace=wrap;fontStyle=1;container=0;rotation=0;fontSize=8;perimeterSpacing=1;" parent="8GOh21PxbDbfWJM2RKLW-24" vertex="1">
          <mxGeometry x="303.1798" y="112.9982" width="12.55" height="9.7" as="geometry" />
        </mxCell>
        <mxCell id="8GOh21PxbDbfWJM2RKLW-51" value="&lt;span style=&quot;font-weight: 400;&quot;&gt;(2)&lt;/span&gt;" style="text;align=center;html=1;verticalAlign=middle;rounded=0;shadow=0;glass=0;labelBorderColor=none;labelBackgroundColor=none;whiteSpace=wrap;fontStyle=1;container=0;rotation=0;fontSize=8;perimeterSpacing=1;" parent="8GOh21PxbDbfWJM2RKLW-24" vertex="1">
          <mxGeometry x="303.1798" y="145.9982" width="12.55" height="9.7" as="geometry" />
        </mxCell>
        <mxCell id="8GOh21PxbDbfWJM2RKLW-52" value="" style="endArrow=classic;startArrow=classic;html=1;rounded=0;movable=1;resizable=1;rotatable=1;deletable=1;editable=1;locked=0;connectable=1;sourcePerimeterSpacing=0;strokeWidth=0.5;endSize=5;startSize=5;" parent="8GOh21PxbDbfWJM2RKLW-24" edge="1">
          <mxGeometry width="50" height="50" relative="1" as="geometry">
            <mxPoint x="87.1798" y="69.9982" as="sourcePoint" />
            <mxPoint x="87.1798" y="53.9982" as="targetPoint" />
          </mxGeometry>
        </mxCell>
        <mxCell id="8GOh21PxbDbfWJM2RKLW-53" value="" style="endArrow=classic;startArrow=classic;html=1;rounded=0;movable=1;resizable=1;rotatable=1;deletable=1;editable=1;locked=0;connectable=1;sourcePerimeterSpacing=0;strokeWidth=0.5;endSize=5;startSize=5;" parent="8GOh21PxbDbfWJM2RKLW-24" edge="1">
          <mxGeometry width="50" height="50" relative="1" as="geometry">
            <mxPoint x="69.1798" y="72.9982" as="sourcePoint" />
            <mxPoint x="83.1798" y="72.9982" as="targetPoint" />
          </mxGeometry>
        </mxCell>
        <mxCell id="8GOh21PxbDbfWJM2RKLW-54" value="&lt;span style=&quot;font-size: 10px;&quot;&gt;&lt;font style=&quot;font-size: 10px;&quot;&gt;5 mm&lt;/font&gt;&lt;/span&gt;" style="text;align=center;html=1;verticalAlign=middle;rounded=0;shadow=0;glass=0;labelBorderColor=none;labelBackgroundColor=none;whiteSpace=wrap;fontStyle=0;container=0;fontSize=10;" parent="8GOh21PxbDbfWJM2RKLW-24" vertex="1">
          <mxGeometry x="54.1798" y="81.9982" width="57" height="14.73" as="geometry" />
        </mxCell>
        <mxCell id="8GOh21PxbDbfWJM2RKLW-55" value="&lt;span style=&quot;font-size: 10px;&quot;&gt;&lt;font style=&quot;font-size: 10px;&quot;&gt;5 mm&lt;/font&gt;&lt;/span&gt;" style="text;align=center;html=1;verticalAlign=middle;rounded=0;shadow=0;glass=0;labelBorderColor=none;labelBackgroundColor=none;whiteSpace=wrap;fontStyle=0;container=0;fontSize=10;rotation=-90;" parent="8GOh21PxbDbfWJM2RKLW-24" vertex="1">
          <mxGeometry x="76.1798" y="58.9982" width="57" height="14.73" as="geometry" />
        </mxCell>
        <mxCell id="8GOh21PxbDbfWJM2RKLW-56" value="" style="endArrow=classic;startArrow=classic;html=1;rounded=0;movable=1;resizable=1;rotatable=1;deletable=1;editable=1;locked=0;connectable=1;sourcePerimeterSpacing=0;strokeWidth=0.5;endSize=5;startSize=5;" parent="8GOh21PxbDbfWJM2RKLW-24" edge="1">
          <mxGeometry width="50" height="50" relative="1" as="geometry">
            <mxPoint x="77.17825371974328" y="179.99749235474007" as="sourcePoint" />
            <mxPoint x="97.1798" y="179.9982" as="targetPoint" />
          </mxGeometry>
        </mxCell>
        <mxCell id="8GOh21PxbDbfWJM2RKLW-57" value="&lt;span style=&quot;font-size: 10px;&quot;&gt;&lt;font style=&quot;font-size: 10px;&quot;&gt;4 mm&lt;/font&gt;&lt;/span&gt;" style="text;align=center;html=1;verticalAlign=middle;rounded=0;shadow=0;glass=0;labelBorderColor=none;labelBackgroundColor=none;whiteSpace=wrap;fontStyle=0;container=0;fontSize=10;" parent="8GOh21PxbDbfWJM2RKLW-24" vertex="1">
          <mxGeometry x="57.1798" y="162.9982" width="57" height="14.73" as="geometry" />
        </mxCell>
        <mxCell id="8GOh21PxbDbfWJM2RKLW-74" value="" style="group" parent="8GOh21PxbDbfWJM2RKLW-133" vertex="1" connectable="0">
          <mxGeometry x="7.105427357601002e-15" width="369.1798" height="279.2600000000001" as="geometry" />
        </mxCell>
        <mxCell id="K3vBRPoJTIptSZS2Vwr1-41" value="" style="rounded=1;whiteSpace=wrap;html=1;fillColor=none;strokeWidth=1.5;glass=0;shadow=0;perimeterSpacing=0;arcSize=10;container=0;" parent="8GOh21PxbDbfWJM2RKLW-74" vertex="1">
          <mxGeometry x="66.8298" y="52.33820000000003" width="301.27" height="164.18" as="geometry" />
        </mxCell>
        <mxCell id="8GOh21PxbDbfWJM2RKLW-62" value="" style="verticalLabelPosition=bottom;verticalAlign=top;html=1;shape=mxgraph.basic.corner_round_rect;dx=6.81;whiteSpace=wrap;rotation=-180;strokeWidth=1.5;fillColor=none;container=0;flipH=1;flipV=1;" parent="8GOh21PxbDbfWJM2RKLW-74" vertex="1">
          <mxGeometry x="333.9298" y="181.83260000000007" width="27.25" height="27.26" as="geometry" />
        </mxCell>
        <mxCell id="8GOh21PxbDbfWJM2RKLW-61" value="" style="verticalLabelPosition=bottom;verticalAlign=top;html=1;shape=mxgraph.basic.corner_round_rect;dx=6.81;whiteSpace=wrap;rotation=-180;strokeWidth=1.5;fillColor=none;container=0;flipH=1;" parent="8GOh21PxbDbfWJM2RKLW-74" vertex="1">
          <mxGeometry x="333.5398" y="60.09260000000006" width="27.25" height="27.26" as="geometry" />
        </mxCell>
        <mxCell id="8GOh21PxbDbfWJM2RKLW-59" value="" style="rounded=0;whiteSpace=wrap;html=1;fillColor=none;strokeWidth=1.5;glass=0;shadow=0;perimeterSpacing=0;arcSize=4;container=0;" parent="8GOh21PxbDbfWJM2RKLW-74" vertex="1">
          <mxGeometry x="74.1798" y="60.09260000000006" width="287" height="149" as="geometry" />
        </mxCell>
        <mxCell id="K3vBRPoJTIptSZS2Vwr1-38" value="&lt;font style=&quot;font-size: 20px;&quot;&gt;Case Top View&lt;br&gt;&lt;/font&gt;" style="text;align=center;html=1;verticalAlign=middle;rounded=0;shadow=0;glass=0;labelBorderColor=none;labelBackgroundColor=none;whiteSpace=wrap;fontStyle=1;container=0;" parent="8GOh21PxbDbfWJM2RKLW-74" vertex="1">
          <mxGeometry x="116.17761557161214" width="206.59852817429345" height="38.26146788990826" as="geometry" />
        </mxCell>
        <mxCell id="K3vBRPoJTIptSZS2Vwr1-39" value="&lt;span style=&quot;font-weight: normal;&quot;&gt;&lt;font style=&quot;font-size: 20px;&quot;&gt;79.4 mm&lt;/font&gt;&lt;/span&gt;" style="text;align=center;html=1;verticalAlign=middle;rounded=0;shadow=0;glass=0;labelBorderColor=none;labelBackgroundColor=none;whiteSpace=wrap;fontStyle=1;container=0;" parent="8GOh21PxbDbfWJM2RKLW-74" vertex="1">
          <mxGeometry x="139.1782101157593" y="240.9985321100918" width="157.90458530316235" height="38.26146788990826" as="geometry" />
        </mxCell>
        <mxCell id="K3vBRPoJTIptSZS2Vwr1-40" value="" style="endArrow=classic;startArrow=classic;html=1;rounded=0;movable=1;resizable=1;rotatable=1;deletable=1;editable=1;locked=0;connectable=1;sourcePerimeterSpacing=0;strokeWidth=1.5;" parent="8GOh21PxbDbfWJM2RKLW-74" edge="1">
          <mxGeometry width="50" height="50" relative="1" as="geometry">
            <mxPoint x="67.1847153711869" y="235.99776758409791" as="sourcePoint" />
            <mxPoint x="366.8986120373943" y="235.99776758409791" as="targetPoint" />
          </mxGeometry>
        </mxCell>
        <mxCell id="K3vBRPoJTIptSZS2Vwr1-42" value="" style="endArrow=classic;startArrow=classic;html=1;rounded=0;movable=1;resizable=1;rotatable=1;deletable=1;editable=1;locked=0;connectable=1;strokeWidth=1.5;sourcePerimeterSpacing=0;" parent="8GOh21PxbDbfWJM2RKLW-74" edge="1">
          <mxGeometry width="50" height="50" relative="1" as="geometry">
            <mxPoint x="47.1798" y="213.9982" as="sourcePoint" />
            <mxPoint x="47.1798" y="56.9982" as="targetPoint" />
          </mxGeometry>
        </mxCell>
        <mxCell id="K3vBRPoJTIptSZS2Vwr1-43" value="&lt;span style=&quot;font-weight: normal;&quot;&gt;&lt;font style=&quot;font-size: 20px;&quot;&gt;46.4 mm&lt;/font&gt;&lt;/span&gt;" style="text;align=center;html=1;verticalAlign=middle;rounded=0;shadow=0;glass=0;labelBorderColor=none;labelBackgroundColor=none;whiteSpace=wrap;fontStyle=1;direction=east;rotation=-90;container=0;" parent="8GOh21PxbDbfWJM2RKLW-74" vertex="1">
          <mxGeometry x="-59.821558706627016" y="108.26966360856272" width="157.90458530316235" height="38.26146788990826" as="geometry" />
        </mxCell>
        <mxCell id="8GOh21PxbDbfWJM2RKLW-2" value="" style="ellipse;whiteSpace=wrap;html=1;aspect=fixed;strokeWidth=1.5;fillColor=none;container=0;dashed=1;dashPattern=1 1;" parent="8GOh21PxbDbfWJM2RKLW-74" vertex="1">
          <mxGeometry x="79.17980000000001" y="66.09260000000006" width="10.06" height="10.06" as="geometry" />
        </mxCell>
        <mxCell id="8GOh21PxbDbfWJM2RKLW-5" value="" style="ellipse;whiteSpace=wrap;html=1;aspect=fixed;fontColor=#000000;fillColor=#000000;container=0;" parent="8GOh21PxbDbfWJM2RKLW-74" vertex="1">
          <mxGeometry x="82.95886983638769" y="69.8693883792049" width="2.5105769738052994" height="2.5124900372854664" as="geometry" />
        </mxCell>
        <mxCell id="8GOh21PxbDbfWJM2RKLW-17" value="" style="endArrow=classic;startArrow=classic;html=1;rounded=0;movable=1;resizable=1;rotatable=1;deletable=1;editable=1;locked=0;connectable=1;sourcePerimeterSpacing=0;strokeWidth=0.5;endSize=4;startSize=4;" parent="8GOh21PxbDbfWJM2RKLW-74" edge="1">
          <mxGeometry width="50" height="50" relative="1" as="geometry">
            <mxPoint x="349.1798" y="196.09260000000006" as="sourcePoint" />
            <mxPoint x="349.1798" y="183.08820000000003" as="targetPoint" />
          </mxGeometry>
        </mxCell>
        <mxCell id="8GOh21PxbDbfWJM2RKLW-18" value="" style="endArrow=classic;startArrow=classic;html=1;rounded=0;movable=1;resizable=1;rotatable=1;deletable=1;editable=1;locked=0;connectable=1;sourcePerimeterSpacing=0;strokeWidth=0.5;endSize=5;startSize=5;" parent="8GOh21PxbDbfWJM2RKLW-74" edge="1">
          <mxGeometry width="50" height="50" relative="1" as="geometry">
            <mxPoint x="342.1798" y="82.08820000000003" as="sourcePoint" />
            <mxPoint x="356.1798" y="82.1826000000001" as="targetPoint" />
          </mxGeometry>
        </mxCell>
        <mxCell id="8GOh21PxbDbfWJM2RKLW-19" value="&lt;span style=&quot;font-size: 10px;&quot;&gt;&lt;font style=&quot;font-size: 10px;&quot;&gt;2.5 mm&lt;/font&gt;&lt;/span&gt;" style="text;align=center;html=1;verticalAlign=middle;rounded=0;shadow=0;glass=0;labelBorderColor=none;labelBackgroundColor=none;whiteSpace=wrap;fontStyle=0;container=0;fontSize=10;" parent="8GOh21PxbDbfWJM2RKLW-74" vertex="1">
          <mxGeometry x="312.1798" y="87.08819999999992" width="57" height="14.73" as="geometry" />
        </mxCell>
        <mxCell id="8GOh21PxbDbfWJM2RKLW-21" value="" style="endArrow=classic;startArrow=classic;html=1;rounded=0;movable=1;resizable=1;rotatable=1;deletable=1;editable=1;locked=0;connectable=1;sourcePerimeterSpacing=0;strokeWidth=0.5;endSize=5;startSize=5;" parent="8GOh21PxbDbfWJM2RKLW-74" edge="1">
          <mxGeometry width="50" height="50" relative="1" as="geometry">
            <mxPoint x="78.17825371974328" y="93.0974923547401" as="sourcePoint" />
            <mxPoint x="100.1798" y="93.09260000000006" as="targetPoint" />
          </mxGeometry>
        </mxCell>
        <mxCell id="8GOh21PxbDbfWJM2RKLW-22" value="&lt;span style=&quot;font-size: 10px;&quot;&gt;&lt;font style=&quot;font-size: 10px;&quot;&gt;7.5 mm&lt;/font&gt;&lt;/span&gt;" style="text;align=center;html=1;verticalAlign=middle;rounded=0;shadow=0;glass=0;labelBorderColor=none;labelBackgroundColor=none;whiteSpace=wrap;fontStyle=0;container=0;fontSize=10;" parent="8GOh21PxbDbfWJM2RKLW-74" vertex="1">
          <mxGeometry x="66.8298" y="97.08819999999992" width="57" height="14.73" as="geometry" />
        </mxCell>
        <mxCell id="8GOh21PxbDbfWJM2RKLW-60" value="" style="verticalLabelPosition=bottom;verticalAlign=top;html=1;shape=mxgraph.basic.corner_round_rect;dx=6.81;whiteSpace=wrap;rotation=-180;strokeWidth=1.5;fillColor=none;container=0;" parent="8GOh21PxbDbfWJM2RKLW-74" vertex="1">
          <mxGeometry x="74.1798" y="60.09260000000006" width="27.25" height="27.26" as="geometry" />
        </mxCell>
        <mxCell id="8GOh21PxbDbfWJM2RKLW-63" value="" style="verticalLabelPosition=bottom;verticalAlign=top;html=1;shape=mxgraph.basic.corner_round_rect;dx=6.81;whiteSpace=wrap;rotation=-180;strokeWidth=1.5;fillColor=none;container=0;flipH=0;flipV=1;" parent="8GOh21PxbDbfWJM2RKLW-74" vertex="1">
          <mxGeometry x="74.1798" y="181.83260000000007" width="27.25" height="27.26" as="geometry" />
        </mxCell>
        <mxCell id="8GOh21PxbDbfWJM2RKLW-64" value="" style="ellipse;whiteSpace=wrap;html=1;aspect=fixed;strokeWidth=1.5;fillColor=none;container=0;dashed=1;dashPattern=1 1;" parent="8GOh21PxbDbfWJM2RKLW-74" vertex="1">
          <mxGeometry x="344.1798" y="66.09260000000006" width="10.06" height="10.06" as="geometry" />
        </mxCell>
        <mxCell id="8GOh21PxbDbfWJM2RKLW-65" value="" style="ellipse;whiteSpace=wrap;html=1;aspect=fixed;strokeWidth=1.5;fillColor=none;container=0;dashed=1;dashPattern=1 1;" parent="8GOh21PxbDbfWJM2RKLW-74" vertex="1">
          <mxGeometry x="344.1798" y="193.09260000000006" width="10.06" height="10.06" as="geometry" />
        </mxCell>
        <mxCell id="8GOh21PxbDbfWJM2RKLW-66" value="" style="ellipse;whiteSpace=wrap;html=1;aspect=fixed;strokeWidth=1.5;fillColor=none;container=0;dashed=1;dashPattern=1 1;" parent="8GOh21PxbDbfWJM2RKLW-74" vertex="1">
          <mxGeometry x="79.1798" y="193.09260000000006" width="10.06" height="10.06" as="geometry" />
        </mxCell>
        <mxCell id="8GOh21PxbDbfWJM2RKLW-67" value="" style="ellipse;whiteSpace=wrap;html=1;aspect=fixed;fontColor=#000000;fillColor=#000000;container=0;" parent="8GOh21PxbDbfWJM2RKLW-74" vertex="1">
          <mxGeometry x="347.9588698363877" y="69.8693883792049" width="2.5105769738052994" height="2.5124900372854664" as="geometry" />
        </mxCell>
        <mxCell id="8GOh21PxbDbfWJM2RKLW-68" value="" style="ellipse;whiteSpace=wrap;html=1;aspect=fixed;fontColor=#000000;fillColor=#000000;container=0;" parent="8GOh21PxbDbfWJM2RKLW-74" vertex="1">
          <mxGeometry x="82.95886983638769" y="196.8693883792049" width="2.5105769738052994" height="2.5124900372854664" as="geometry" />
        </mxCell>
        <mxCell id="8GOh21PxbDbfWJM2RKLW-69" value="" style="ellipse;whiteSpace=wrap;html=1;aspect=fixed;fontColor=#000000;fillColor=#000000;container=0;" parent="8GOh21PxbDbfWJM2RKLW-74" vertex="1">
          <mxGeometry x="347.9588698363877" y="196.8693883792049" width="2.5105769738052994" height="2.5124900372854664" as="geometry" />
        </mxCell>
        <mxCell id="8GOh21PxbDbfWJM2RKLW-70" value="" style="endArrow=classic;startArrow=classic;html=1;rounded=0;movable=1;resizable=1;rotatable=1;deletable=1;editable=1;locked=0;connectable=1;sourcePerimeterSpacing=0;strokeWidth=0.5;endSize=5;startSize=5;" parent="8GOh21PxbDbfWJM2RKLW-74" edge="1">
          <mxGeometry width="50" height="50" relative="1" as="geometry">
            <mxPoint x="108.17825371974328" y="63.0974923547401" as="sourcePoint" />
            <mxPoint x="108.1798" y="85.09260000000006" as="targetPoint" />
          </mxGeometry>
        </mxCell>
        <mxCell id="8GOh21PxbDbfWJM2RKLW-71" value="&lt;span style=&quot;font-size: 10px;&quot;&gt;&lt;font style=&quot;font-size: 10px;&quot;&gt;7.5 mm&lt;/font&gt;&lt;/span&gt;" style="text;align=center;html=1;verticalAlign=middle;rounded=0;shadow=0;glass=0;labelBorderColor=none;labelBackgroundColor=none;whiteSpace=wrap;fontStyle=0;container=0;fontSize=10;rotation=-90;" parent="8GOh21PxbDbfWJM2RKLW-74" vertex="1">
          <mxGeometry x="90.1798" y="72.08819999999992" width="57" height="14.73" as="geometry" />
        </mxCell>
        <mxCell id="8GOh21PxbDbfWJM2RKLW-72" value="" style="endArrow=classic;startArrow=classic;html=1;rounded=0;movable=1;resizable=1;rotatable=1;deletable=1;editable=1;locked=0;connectable=1;sourcePerimeterSpacing=0;strokeWidth=0.5;endSize=4;startSize=4;" parent="8GOh21PxbDbfWJM2RKLW-74" edge="1">
          <mxGeometry width="50" height="50" relative="1" as="geometry">
            <mxPoint x="335.1798" y="198.09260000000006" as="sourcePoint" />
            <mxPoint x="347.1798" y="198.09260000000006" as="targetPoint" />
          </mxGeometry>
        </mxCell>
        <mxCell id="8GOh21PxbDbfWJM2RKLW-73" value="&lt;span style=&quot;font-size: 10px;&quot;&gt;&lt;font style=&quot;font-size: 10px;&quot;&gt;4.5 mm&lt;/font&gt;&lt;/span&gt;" style="text;align=center;html=1;verticalAlign=middle;rounded=0;shadow=0;glass=0;labelBorderColor=none;labelBackgroundColor=none;whiteSpace=wrap;fontStyle=0;container=0;fontSize=10;" parent="8GOh21PxbDbfWJM2RKLW-74" vertex="1">
          <mxGeometry x="312.1798" y="167.08819999999992" width="57" height="14.73" as="geometry" />
        </mxCell>
        <mxCell id="8GOh21PxbDbfWJM2RKLW-134" value="&lt;span style=&quot;font-weight: 400; font-size: 6px;&quot;&gt;(1)&lt;/span&gt;" style="text;align=center;html=1;verticalAlign=middle;rounded=0;shadow=0;glass=0;labelBorderColor=none;labelBackgroundColor=none;whiteSpace=wrap;fontStyle=1;container=0;rotation=0;fontSize=6;perimeterSpacing=1;" parent="8GOh21PxbDbfWJM2RKLW-74" vertex="1">
          <mxGeometry x="86.16809999999992" y="72.61819999999997" width="12.55" height="9.7" as="geometry" />
        </mxCell>
        <mxCell id="8GOh21PxbDbfWJM2RKLW-114" value="" style="group" parent="8GOh21PxbDbfWJM2RKLW-133" vertex="1" connectable="0">
          <mxGeometry y="314.9599999999999" width="368.0998" height="279.26000000000005" as="geometry" />
        </mxCell>
        <mxCell id="8GOh21PxbDbfWJM2RKLW-82" value="" style="rounded=1;whiteSpace=wrap;html=1;fillColor=none;strokeWidth=1.5;glass=0;shadow=0;perimeterSpacing=0;arcSize=3;container=0;" parent="8GOh21PxbDbfWJM2RKLW-114" vertex="1">
          <mxGeometry x="66.8298" y="52.33820000000003" width="301.27" height="164.18" as="geometry" />
        </mxCell>
        <mxCell id="8GOh21PxbDbfWJM2RKLW-79" value="&lt;font style=&quot;font-size: 20px;&quot;&gt;Box Front View&lt;br&gt;&lt;/font&gt;" style="text;align=center;html=1;verticalAlign=middle;rounded=0;shadow=0;glass=0;labelBorderColor=none;labelBackgroundColor=none;whiteSpace=wrap;fontStyle=1;container=0;" parent="8GOh21PxbDbfWJM2RKLW-114" vertex="1">
          <mxGeometry x="116.17761557161214" width="206.59852817429345" height="38.26146788990826" as="geometry" />
        </mxCell>
        <mxCell id="8GOh21PxbDbfWJM2RKLW-80" value="&lt;span style=&quot;font-weight: normal;&quot;&gt;&lt;font style=&quot;font-size: 20px;&quot;&gt;46.4 mm&lt;/font&gt;&lt;/span&gt;" style="text;align=center;html=1;verticalAlign=middle;rounded=0;shadow=0;glass=0;labelBorderColor=none;labelBackgroundColor=none;whiteSpace=wrap;fontStyle=1;container=0;" parent="8GOh21PxbDbfWJM2RKLW-114" vertex="1">
          <mxGeometry x="139.1782101157593" y="240.9985321100918" width="157.90458530316235" height="38.26146788990826" as="geometry" />
        </mxCell>
        <mxCell id="8GOh21PxbDbfWJM2RKLW-81" value="" style="endArrow=classic;startArrow=classic;html=1;rounded=0;movable=1;resizable=1;rotatable=1;deletable=1;editable=1;locked=0;connectable=1;sourcePerimeterSpacing=0;strokeWidth=1.5;" parent="8GOh21PxbDbfWJM2RKLW-114" edge="1">
          <mxGeometry width="50" height="50" relative="1" as="geometry">
            <mxPoint x="67.1847153711869" y="235.99776758409791" as="sourcePoint" />
            <mxPoint x="366.89861203739434" y="235.99776758409791" as="targetPoint" />
          </mxGeometry>
        </mxCell>
        <mxCell id="8GOh21PxbDbfWJM2RKLW-83" value="" style="endArrow=classic;startArrow=classic;html=1;rounded=0;movable=1;resizable=1;rotatable=1;deletable=1;editable=1;locked=0;connectable=1;strokeWidth=1.5;sourcePerimeterSpacing=0;" parent="8GOh21PxbDbfWJM2RKLW-114" edge="1">
          <mxGeometry width="50" height="50" relative="1" as="geometry">
            <mxPoint x="47.1798" y="213.9982" as="sourcePoint" />
            <mxPoint x="47.1798" y="56.9982" as="targetPoint" />
          </mxGeometry>
        </mxCell>
        <mxCell id="8GOh21PxbDbfWJM2RKLW-84" value="&lt;span style=&quot;font-weight: normal;&quot;&gt;&lt;font style=&quot;font-size: 20px;&quot;&gt;19 mm&lt;/font&gt;&lt;/span&gt;" style="text;align=center;html=1;verticalAlign=middle;rounded=0;shadow=0;glass=0;labelBorderColor=none;labelBackgroundColor=none;whiteSpace=wrap;fontStyle=1;direction=east;rotation=-90;container=0;" parent="8GOh21PxbDbfWJM2RKLW-114" vertex="1">
          <mxGeometry x="-59.821558706627016" y="108.26966360856272" width="157.90458530316235" height="38.26146788990826" as="geometry" />
        </mxCell>
        <mxCell id="8GOh21PxbDbfWJM2RKLW-88" value="" style="endArrow=classic;startArrow=classic;html=1;rounded=0;movable=1;resizable=1;rotatable=1;deletable=1;editable=1;locked=0;connectable=1;sourcePerimeterSpacing=0;strokeWidth=0.5;endSize=5;startSize=5;" parent="8GOh21PxbDbfWJM2RKLW-114" edge="1">
          <mxGeometry width="50" height="50" relative="1" as="geometry">
            <mxPoint x="248.1654" y="136.164" as="sourcePoint" />
            <mxPoint x="248.1654" y="93.16399999999999" as="targetPoint" />
          </mxGeometry>
        </mxCell>
        <mxCell id="8GOh21PxbDbfWJM2RKLW-89" value="&lt;span style=&quot;font-size: 14px;&quot;&gt;&lt;font style=&quot;font-size: 14px;&quot;&gt;6 mm&lt;/font&gt;&lt;/span&gt;" style="text;align=center;html=1;verticalAlign=middle;rounded=0;shadow=0;glass=0;labelBorderColor=none;labelBackgroundColor=none;whiteSpace=wrap;fontStyle=0;container=0;fontSize=14;rotation=-90;" parent="8GOh21PxbDbfWJM2RKLW-114" vertex="1">
          <mxGeometry x="233.16980000000004" y="106.16819999999984" width="57" height="14.73" as="geometry" />
        </mxCell>
        <mxCell id="8GOh21PxbDbfWJM2RKLW-94" value="" style="ellipse;whiteSpace=wrap;html=1;aspect=fixed;strokeWidth=1.5;fillColor=none;container=0;dashed=1;dashPattern=1 1;" parent="8GOh21PxbDbfWJM2RKLW-114" vertex="1">
          <mxGeometry x="194.1654" y="93.16399999999999" width="45.39" height="45.39" as="geometry" />
        </mxCell>
        <mxCell id="8GOh21PxbDbfWJM2RKLW-97" value="" style="ellipse;whiteSpace=wrap;html=1;aspect=fixed;fontColor=#000000;fillColor=#000000;container=0;" parent="8GOh21PxbDbfWJM2RKLW-114" vertex="1">
          <mxGeometry x="215.60886983638773" y="114.59938837920492" width="2.5105769738052994" height="2.5124900372854664" as="geometry" />
        </mxCell>
        <mxCell id="8GOh21PxbDbfWJM2RKLW-106" value="" style="endArrow=classic;startArrow=classic;html=1;rounded=0;movable=1;resizable=1;rotatable=1;deletable=1;editable=1;locked=0;connectable=1;strokeWidth=1.5;sourcePerimeterSpacing=0;" parent="8GOh21PxbDbfWJM2RKLW-114" edge="1">
          <mxGeometry width="50" height="50" relative="1" as="geometry">
            <mxPoint x="217.1654" y="111.16399999999999" as="sourcePoint" />
            <mxPoint x="217.1698" y="54.168199999999956" as="targetPoint" />
          </mxGeometry>
        </mxCell>
        <mxCell id="8GOh21PxbDbfWJM2RKLW-107" value="&lt;span style=&quot;font-size: 11px;&quot;&gt;&lt;font style=&quot;font-size: 11px;&quot;&gt;8.1 mm&lt;/font&gt;&lt;/span&gt;" style="text;align=center;html=1;verticalAlign=middle;rounded=0;shadow=0;glass=0;labelBorderColor=none;labelBackgroundColor=none;whiteSpace=wrap;fontStyle=0;container=0;fontSize=11;rotation=-90;" parent="8GOh21PxbDbfWJM2RKLW-114" vertex="1">
          <mxGeometry x="201.16980000000004" y="67.16819999999984" width="57" height="14.73" as="geometry" />
        </mxCell>
        <mxCell id="8GOh21PxbDbfWJM2RKLW-105" value="" style="endArrow=classic;startArrow=classic;html=1;rounded=0;movable=1;resizable=1;rotatable=1;deletable=1;editable=1;locked=0;connectable=1;strokeWidth=1.5;sourcePerimeterSpacing=0;" parent="8GOh21PxbDbfWJM2RKLW-114" edge="1">
          <mxGeometry width="50" height="50" relative="1" as="geometry">
            <mxPoint x="71.1654" y="116.16399999999999" as="sourcePoint" />
            <mxPoint x="212.1654" y="116.16819999999996" as="targetPoint" />
          </mxGeometry>
        </mxCell>
        <mxCell id="8GOh21PxbDbfWJM2RKLW-109" value="&lt;span style=&quot;font-size: 14px;&quot;&gt;&lt;font style=&quot;font-size: 14px;&quot;&gt;23.5 mm&lt;/font&gt;&lt;/span&gt;" style="text;align=center;html=1;verticalAlign=middle;rounded=0;shadow=0;glass=0;labelBorderColor=none;labelBackgroundColor=none;whiteSpace=wrap;fontStyle=0;container=0;fontSize=14;rotation=0;" parent="8GOh21PxbDbfWJM2RKLW-114" vertex="1">
          <mxGeometry x="113.1654" y="120.16819999999996" width="57" height="14.73" as="geometry" />
        </mxCell>
        <mxCell id="8GOh21PxbDbfWJM2RKLW-112" value="" style="rounded=0;whiteSpace=wrap;html=1;fillColor=none;strokeWidth=1.5;glass=0;shadow=0;perimeterSpacing=0;arcSize=4;container=0;dashed=1;" parent="8GOh21PxbDbfWJM2RKLW-114" vertex="1">
          <mxGeometry x="190.1654" y="85.16399999999999" width="53" height="75.77" as="geometry" />
        </mxCell>
        <mxCell id="8GOh21PxbDbfWJM2RKLW-113" value="&lt;span style=&quot;font-weight: 400;&quot;&gt;(3)&lt;/span&gt;" style="text;align=center;html=1;verticalAlign=middle;rounded=0;shadow=0;glass=0;labelBorderColor=none;labelBackgroundColor=none;whiteSpace=wrap;fontStyle=1;container=0;rotation=0;fontSize=8;perimeterSpacing=1;" parent="8GOh21PxbDbfWJM2RKLW-114" vertex="1">
          <mxGeometry x="210.16809999999995" y="146.16820000000007" width="12.55" height="9.7" as="geometry" />
        </mxCell>
        <mxCell id="8GOh21PxbDbfWJM2RKLW-132" value="" style="group" parent="8GOh21PxbDbfWJM2RKLW-133" vertex="1" connectable="0">
          <mxGeometry x="377.55830000000003" y="314.9599999999999" width="368.0998" height="279.26000000000005" as="geometry" />
        </mxCell>
        <mxCell id="8GOh21PxbDbfWJM2RKLW-116" value="" style="rounded=1;whiteSpace=wrap;html=1;fillColor=none;strokeWidth=1.5;glass=0;shadow=0;perimeterSpacing=0;arcSize=3;container=0;" parent="8GOh21PxbDbfWJM2RKLW-132" vertex="1">
          <mxGeometry x="66.82980000000003" y="52.33820000000003" width="301.27" height="164.18" as="geometry" />
        </mxCell>
        <mxCell id="8GOh21PxbDbfWJM2RKLW-117" value="&lt;font style=&quot;font-size: 20px;&quot;&gt;Box Back View&lt;br&gt;&lt;/font&gt;" style="text;align=center;html=1;verticalAlign=middle;rounded=0;shadow=0;glass=0;labelBorderColor=none;labelBackgroundColor=none;whiteSpace=wrap;fontStyle=1;container=0;" parent="8GOh21PxbDbfWJM2RKLW-132" vertex="1">
          <mxGeometry x="116.17761557161208" width="206.59852817429345" height="38.26146788990826" as="geometry" />
        </mxCell>
        <mxCell id="8GOh21PxbDbfWJM2RKLW-118" value="&lt;span style=&quot;font-weight: normal;&quot;&gt;&lt;font style=&quot;font-size: 20px;&quot;&gt;46.4 mm&lt;/font&gt;&lt;/span&gt;" style="text;align=center;html=1;verticalAlign=middle;rounded=0;shadow=0;glass=0;labelBorderColor=none;labelBackgroundColor=none;whiteSpace=wrap;fontStyle=1;container=0;" parent="8GOh21PxbDbfWJM2RKLW-132" vertex="1">
          <mxGeometry x="139.17821011575933" y="240.9985321100918" width="157.90458530316235" height="38.26146788990826" as="geometry" />
        </mxCell>
        <mxCell id="8GOh21PxbDbfWJM2RKLW-119" value="" style="endArrow=classic;startArrow=classic;html=1;rounded=0;movable=1;resizable=1;rotatable=1;deletable=1;editable=1;locked=0;connectable=1;sourcePerimeterSpacing=0;strokeWidth=1.5;" parent="8GOh21PxbDbfWJM2RKLW-132" edge="1">
          <mxGeometry width="50" height="50" relative="1" as="geometry">
            <mxPoint x="67.18471537118688" y="235.99776758409791" as="sourcePoint" />
            <mxPoint x="366.89861203739434" y="235.99776758409791" as="targetPoint" />
          </mxGeometry>
        </mxCell>
        <mxCell id="8GOh21PxbDbfWJM2RKLW-120" value="" style="endArrow=classic;startArrow=classic;html=1;rounded=0;movable=1;resizable=1;rotatable=1;deletable=1;editable=1;locked=0;connectable=1;strokeWidth=1.5;sourcePerimeterSpacing=0;" parent="8GOh21PxbDbfWJM2RKLW-132" edge="1">
          <mxGeometry width="50" height="50" relative="1" as="geometry">
            <mxPoint x="47.1798" y="213.9982" as="sourcePoint" />
            <mxPoint x="47.1798" y="56.9982" as="targetPoint" />
          </mxGeometry>
        </mxCell>
        <mxCell id="8GOh21PxbDbfWJM2RKLW-121" value="&lt;span style=&quot;font-weight: normal;&quot;&gt;&lt;font style=&quot;font-size: 20px;&quot;&gt;19 mm&lt;/font&gt;&lt;/span&gt;" style="text;align=center;html=1;verticalAlign=middle;rounded=0;shadow=0;glass=0;labelBorderColor=none;labelBackgroundColor=none;whiteSpace=wrap;fontStyle=1;direction=east;rotation=-90;container=0;" parent="8GOh21PxbDbfWJM2RKLW-132" vertex="1">
          <mxGeometry x="-59.821558706627" y="108.26966360856272" width="157.90458530316235" height="38.26146788990826" as="geometry" />
        </mxCell>
        <mxCell id="8GOh21PxbDbfWJM2RKLW-122" value="" style="endArrow=classic;startArrow=classic;html=1;rounded=0;movable=1;resizable=1;rotatable=1;deletable=1;editable=1;locked=0;connectable=1;sourcePerimeterSpacing=0;strokeWidth=0.5;endSize=5;startSize=5;" parent="8GOh21PxbDbfWJM2RKLW-132" edge="1">
          <mxGeometry width="50" height="50" relative="1" as="geometry">
            <mxPoint x="238.6071" y="131.164" as="sourcePoint" />
            <mxPoint x="238.6071" y="101.16399999999999" as="targetPoint" />
          </mxGeometry>
        </mxCell>
        <mxCell id="8GOh21PxbDbfWJM2RKLW-123" value="&lt;span style=&quot;font-size: 14px;&quot;&gt;&lt;font style=&quot;font-size: 14px;&quot;&gt;3.5 mm&lt;/font&gt;&lt;/span&gt;" style="text;align=center;html=1;verticalAlign=middle;rounded=0;shadow=0;glass=0;labelBorderColor=none;labelBackgroundColor=none;whiteSpace=wrap;fontStyle=0;container=0;fontSize=14;rotation=-90;" parent="8GOh21PxbDbfWJM2RKLW-132" vertex="1">
          <mxGeometry x="222.60980000000012" y="109.16819999999984" width="57" height="14.73" as="geometry" />
        </mxCell>
        <mxCell id="8GOh21PxbDbfWJM2RKLW-124" value="" style="ellipse;whiteSpace=wrap;html=1;aspect=fixed;strokeWidth=1.5;fillColor=none;container=0;dashed=1;dashPattern=1 1;" parent="8GOh21PxbDbfWJM2RKLW-132" vertex="1">
          <mxGeometry x="201.7471" y="101.16399999999999" width="29.39" height="29.39" as="geometry" />
        </mxCell>
        <mxCell id="8GOh21PxbDbfWJM2RKLW-125" value="" style="ellipse;whiteSpace=wrap;html=1;aspect=fixed;fontColor=#000000;fillColor=#000000;container=0;" parent="8GOh21PxbDbfWJM2RKLW-132" vertex="1">
          <mxGeometry x="215.60886983638767" y="114.59938837920492" width="2.5105769738052994" height="2.5124900372854664" as="geometry" />
        </mxCell>
        <mxCell id="8GOh21PxbDbfWJM2RKLW-126" value="" style="endArrow=classic;startArrow=classic;html=1;rounded=0;movable=1;resizable=1;rotatable=1;deletable=1;editable=1;locked=0;connectable=1;strokeWidth=1.5;sourcePerimeterSpacing=0;" parent="8GOh21PxbDbfWJM2RKLW-132" edge="1">
          <mxGeometry width="50" height="50" relative="1" as="geometry">
            <mxPoint x="216.6071" y="112.16399999999999" as="sourcePoint" />
            <mxPoint x="216.6071" y="55.16399999999999" as="targetPoint" />
          </mxGeometry>
        </mxCell>
        <mxCell id="8GOh21PxbDbfWJM2RKLW-127" value="&lt;span style=&quot;font-size: 14px;&quot;&gt;&lt;font style=&quot;font-size: 14px;&quot;&gt;9 mm&lt;/font&gt;&lt;/span&gt;" style="text;align=center;html=1;verticalAlign=middle;rounded=0;shadow=0;glass=0;labelBorderColor=none;labelBackgroundColor=none;whiteSpace=wrap;fontStyle=0;container=0;fontSize=14;rotation=-90;" parent="8GOh21PxbDbfWJM2RKLW-132" vertex="1">
          <mxGeometry x="200.60980000000012" y="73.16819999999984" width="57" height="10.629900000000001" as="geometry" />
        </mxCell>
        <mxCell id="8GOh21PxbDbfWJM2RKLW-128" value="" style="endArrow=classic;startArrow=classic;html=1;rounded=0;movable=1;resizable=1;rotatable=1;deletable=1;editable=1;locked=0;connectable=1;strokeWidth=1.5;sourcePerimeterSpacing=0;" parent="8GOh21PxbDbfWJM2RKLW-132" edge="1">
          <mxGeometry width="50" height="50" relative="1" as="geometry">
            <mxPoint x="71.16540000000003" y="116.16399999999999" as="sourcePoint" />
            <mxPoint x="212.16540000000003" y="116.16819999999996" as="targetPoint" />
          </mxGeometry>
        </mxCell>
        <mxCell id="8GOh21PxbDbfWJM2RKLW-129" value="&lt;span style=&quot;font-size: 14px;&quot;&gt;&lt;font style=&quot;font-size: 14px;&quot;&gt;23.5 mm&lt;/font&gt;&lt;/span&gt;" style="text;align=center;html=1;verticalAlign=middle;rounded=0;shadow=0;glass=0;labelBorderColor=none;labelBackgroundColor=none;whiteSpace=wrap;fontStyle=0;container=0;fontSize=14;rotation=0;" parent="8GOh21PxbDbfWJM2RKLW-132" vertex="1">
          <mxGeometry x="113.16540000000003" y="120.16819999999996" width="57" height="14.73" as="geometry" />
        </mxCell>
        <mxCell id="8GOh21PxbDbfWJM2RKLW-135" value="&lt;span style=&quot;font-weight: 400; font-size: 6px;&quot;&gt;(1)&lt;/span&gt;" style="text;align=center;html=1;verticalAlign=middle;rounded=0;shadow=0;glass=0;labelBorderColor=none;labelBackgroundColor=none;whiteSpace=wrap;fontStyle=1;container=0;rotation=0;fontSize=6;perimeterSpacing=1;" parent="1" vertex="1">
          <mxGeometry x="355.0026999999999" y="-954.0018" width="12.55" height="9.7" as="geometry" />
        </mxCell>
        <mxCell id="8GOh21PxbDbfWJM2RKLW-136" value="&lt;span style=&quot;font-weight: 400; font-size: 6px;&quot;&gt;(1)&lt;/span&gt;" style="text;align=center;html=1;verticalAlign=middle;rounded=0;shadow=0;glass=0;labelBorderColor=none;labelBackgroundColor=none;whiteSpace=wrap;fontStyle=1;container=0;rotation=0;fontSize=6;perimeterSpacing=1;" parent="1" vertex="1">
          <mxGeometry x="109.00269999999989" y="-838.0018" width="12.55" height="9.7" as="geometry" />
        </mxCell>
        <mxCell id="8GOh21PxbDbfWJM2RKLW-137" value="&lt;span style=&quot;font-weight: 400; font-size: 6px;&quot;&gt;(1)&lt;/span&gt;" style="text;align=center;html=1;verticalAlign=middle;rounded=0;shadow=0;glass=0;labelBorderColor=none;labelBackgroundColor=none;whiteSpace=wrap;fontStyle=1;container=0;rotation=0;fontSize=6;perimeterSpacing=1;" parent="1" vertex="1">
          <mxGeometry x="358.0026999999999" y="-839.0018" width="12.55" height="9.7" as="geometry" />
        </mxCell>
        <mxCell id="2Bf63tYjYQcZ8QM3cHrZ-1" value="&lt;font style=&quot;font-size: 9px;&quot;&gt;Box Front View&lt;/font&gt;" style="text;align=center;html=1;verticalAlign=middle;rounded=0;shadow=0;glass=0;labelBorderColor=none;labelBackgroundColor=none;whiteSpace=wrap;fontStyle=1;container=0;rotation=-90;fontSize=8;perimeterSpacing=1;" vertex="1" parent="1">
          <mxGeometry x="697.0049388578891" y="-907.003856880734" width="163.78928444225843" height="38.53211009174312" as="geometry" />
        </mxCell>
      </root>
    </mxGraphModel>
  </diagram>
</mxfile>
